<svg xmlns="http://www.w3.org/2000/svg" xmlns:xlink="http://www.w3.org/1999/xlink" width="1126.467" height="277.952" viewBox="0 0 1126.467 277.952">
  <defs>
    <clipPath id="clip-path">
      <rect x="542" y="19" width="568.639" height="77.408" fill="none"/>
    </clipPath>
    <clipPath id="clip-path-2">
      <rect x="537" y="19" width="18.639" height="77.408" fill="none"/>
    </clipPath>
  </defs>
  <g id="グループ_2" data-name="グループ 2" transform="translate(-2.935 0.006)">
    <g id="スクロールグループ_1" data-name="スクロールグループ 1" transform="translate(0.013 181.449)" clip-path="url(#clip-path)" style="isolation: isolate">
      <g id="スクロールグループ_2" data-name="スクロールグループ 2" transform="translate(0 0)" clip-path="url(#clip-path-2)" style="isolation: isolate">
        <path id="museum_のコピー" data-name="museum のコピー" d="M427.562,675.506l3.335-37.65a1.438,1.438,0,0,0-1.488-1.47,2.781,2.781,0,0,0-2.21.594l-10.658,9.053a5.267,5.267,0,0,1-8.425-.655l-9.037-10.916a2.745,2.745,0,0,0-2.022-.973,1.453,1.453,0,0,0-1.771,1.179l-3.335,37.65a1.884,1.884,0,0,0,1.944,1.858,1.861,1.861,0,0,0,2.191-1.488l2.725-30.769c.044-.491.212-.724.455-.7a.928.928,0,0,1,.553.4l5.984,7.174c1.817,2.194,3.773,3.36,5.816,3.543a8.973,8.973,0,0,0,6.546-2.485l7.045-5.909a.93.93,0,0,1,.614-.292c.243.022.367.281.324.772l-2.721,30.72A1.885,1.885,0,0,0,425.371,677a1.861,1.861,0,0,0,2.191-1.494Zm91.784,11.406,3.769-27.728c.765-5.624-2.711-10.886-8.567-11.694l-9.632-1.328a10.157,10.157,0,0,0-11.428,8.985l-3.764,27.679c-.159,1.174.245,1.827,1.794,2.041,1.5.207,2.112-.307,2.272-1.48l1.762-12.959,21.49,2.964-1.762,12.959c-.16,1.173.245,1.827,1.793,2.041C518.574,688.6,519.186,688.085,519.346,686.912Zm-1.759-17.53-21.49-2.964,1.423-10.465a6.312,6.312,0,0,1,7.08-5.65l9.147,1.262a6.225,6.225,0,0,1,5.27,7.3Zm97.525,1.94.154-1.72a10.271,10.271,0,0,0-9.68-11.328l-16.978-1.532a3.644,3.644,0,0,0-3.978,3.357l-3.079,34.5c-.106,1.18.328,1.814,1.885,1.954s2.145-.4,2.25-1.581l1.4-15.678,12.795,1.154,7.835,17.157a1.507,1.507,0,0,0,1.181,1.048c.876.079,2.613-.706,2.7-1.689a2.184,2.184,0,0,0-.253-1.014l-6.887-15.138a10.145,10.145,0,0,0,10.655-9.49Zm-4.078-.467c-.337,3.785-3.1,6.21-7.288,5.833l-16.3-1.471,1.163-13.025a1.341,1.341,0,0,1,1.485-1.253l15.032,1.357c3.941.355,6.379,3.251,6.046,6.986Zm69.208,28.379-.521-36.317c-.018-1.283-.565-1.916-2.177-1.891s-2.14.675-2.121,1.958l.521,36.317c.019,1.283.564,1.866,2.176,1.841s2.141-.625,2.122-1.908Zm93.965-5.912-3.513-37.386a1.859,1.859,0,0,0-2.2-1.473,1.89,1.89,0,0,0-1.934,1.873l1.2,12.773L744.5,657.578a4.706,4.706,0,0,0-2.749-.527,1.871,1.871,0,0,0-1.886,1.868l3.514,37.387a2.094,2.094,0,0,0,4.085-.4L744.4,663.388a.69.69,0,0,1,.5-.892.928.928,0,0,1,.6.14l22.7,11.288,1.861,19.8a2.123,2.123,0,0,0,4.146-.4Zm92.236-6.814c-.037-1.529-.685-2.055-1.857-2.026l-22.852.579a1.34,1.34,0,0,1-1.4-1.346l-.3-12.678,18.9-.479c1.171-.029,1.794-.539,1.756-2.117-.036-1.529-.684-2.056-1.856-2.026l-18.9.479-.295-12.283a1.345,1.345,0,0,1,1.334-1.416l22.9-.58c1.172-.03,1.746-.538,1.71-2.067s-.636-2.057-1.808-2.028l-24.463.62a3.653,3.653,0,0,0-3.574,3.793l.785,32.705a3.642,3.642,0,0,0,3.751,3.607l24.415-.619c1.169-.026,1.792-.539,1.754-2.118Zm167.977,21.613,6.47-37.232a1.434,1.434,0,0,0-1.36-1.592,2.778,2.778,0,0,0-2.25.4l-11.37,8.11a5.27,5.27,0,0,1-8.34-1.372l-8.09-11.649a2.759,2.759,0,0,0-1.94-1.143,1.448,1.448,0,0,0-1.86,1.023L999.206,701.9a1.889,1.889,0,0,0,1.784,2.018,1.866,1.866,0,0,0,2.31-1.3l5.29-30.427c.08-.486.27-.7.51-.661a.9.9,0,0,1,.51.442l5.37,7.66c1.62,2.342,3.47,3.671,5.49,4.027a8.947,8.947,0,0,0,6.73-1.917l7.52-5.286a.9.9,0,0,1,.63-.238c.24.042.35.311.26.8l-5.28,30.378a1.889,1.889,0,0,0,1.78,2.018,1.861,1.861,0,0,0,2.31-1.293Zm92.57,4.778,3.33-27.884c.14-1.176-.32-1.877-1.87-2.065s-2.11.39-2.25,1.566l-3.32,27.736a6.306,6.306,0,0,1-7.2,5.491l-8.68-1.051a6.338,6.338,0,0,1-5.7-7.054l3.31-27.687c.14-1.176-.32-1.878-1.87-2.066s-2.11.39-2.25,1.567l-3.33,27.834a10.364,10.364,0,0,0,9.16,11.5l9.07,1.1a10.352,10.352,0,0,0,11.6-8.986Zm92.57,7.024.04-1.332a10.368,10.368,0,0,0-10.09-10.946l-11.03-.363c-3.96-.13-6.41-2.728-6.29-6.476l.04-1.233a6.06,6.06,0,0,1,6.65-6l17.91.589c1.18.039,1.83-.434,1.88-2.012.05-1.529-.57-2.092-1.74-2.13l-18.11-.6a10.162,10.162,0,0,0-10.78,9.865l-.05,1.38a10.129,10.129,0,0,0,10.15,10.7l11.13.366a6.267,6.267,0,0,1,6.23,6.721l-.04,1.184c-.12,3.6-2.64,6.183-6.7,6.05l-18.74-.617c-1.17-.038-1.78.485-1.83,2.014-.05,1.578.52,2.09,1.69,2.129l18.89.621a10.092,10.092,0,0,0,10.79-9.91Zm90.64,1.562c-.19-1.519-.88-1.98-2.04-1.838l-22.7,2.782a1.331,1.331,0,0,1-1.52-1.2l-1.5-12.59,18.76-2.3c1.17-.143,1.74-.71,1.55-2.277-.18-1.519-.87-1.981-2.04-1.838l-18.77,2.3-1.45-12.2a1.351,1.351,0,0,1,1.19-1.538L1304.43,688c1.16-.143,1.69-.7,1.51-2.223s-.83-1.986-2-1.843l-24.29,2.978a3.656,3.656,0,0,0-3.2,4.12l3.87,32.48a3.638,3.638,0,0,0,4.08,3.229l24.25-2.972C1309.81,723.62,1310.38,723.053,1310.2,721.485Zm90.51-18.624-1.86-28.019c-.08-1.182-.66-1.786-2.22-1.678s-2.01.78-1.93,1.962L1396.56,703a6.353,6.353,0,0,1-6.07,6.749l-8.72.6a6.31,6.31,0,0,1-6.91-5.858l-1.85-27.823c-.07-1.182-.65-1.785-2.21-1.678s-2.01.781-1.93,1.963l1.86,27.97a10.318,10.318,0,0,0,11.12,9.576l9.11-.626a10.407,10.407,0,0,0,9.75-11.012Zm98.9,11.651,2.98-37.691a1.448,1.448,0,0,0-1.51-1.457,2.772,2.772,0,0,0-2.2.617l-10.57,9.16a5.275,5.275,0,0,1-8.44-.573l-9.14-10.829a2.754,2.754,0,0,0-2.03-.954,1.446,1.446,0,0,0-1.76,1.2l-2.98,37.691a1.89,1.89,0,0,0,1.97,1.84,1.859,1.859,0,0,0,2.17-1.51l2.43-30.8c.04-.492.21-.726.45-.707a.954.954,0,0,1,.56.391l6.05,7.117c1.84,2.177,3.81,3.324,5.85,3.487a8.987,8.987,0,0,0,6.53-2.551l6.99-5.979a.918.918,0,0,1,.61-.3c.24.019.37.277.33.769l-2.43,30.753a1.889,1.889,0,0,0,1.97,1.84,1.859,1.859,0,0,0,2.17-1.514Z" transform="translate(-391.951 -633.449)" fill="#fff" fill-rule="evenodd"/>
      </g>
    </g>
    <path id="marine_のコピー" data-name="marine のコピー" d="M447.175,707.748l1.778-37.755a1.439,1.439,0,0,0-1.548-1.408,2.785,2.785,0,0,0-2.184.685l-10.275,9.485a5.266,5.266,0,0,1-8.444-.307l-9.48-10.533a2.744,2.744,0,0,0-2.06-.89,1.455,1.455,0,0,0-1.722,1.251l-1.778,37.756a1.885,1.885,0,0,0,2.019,1.777,1.862,1.862,0,0,0,2.128-1.578l1.453-30.855c.023-.493.181-.732.425-.72a.924.924,0,0,1,.569.373l6.276,6.921c1.9,2.117,3.908,3.2,5.957,3.3a8.973,8.973,0,0,0,6.437-2.754l6.8-6.194a.931.931,0,0,1,.6-.317c.244.012.379.265.355.758l-1.45,30.806a1.884,1.884,0,0,0,2.019,1.777,1.862,1.862,0,0,0,2.125-1.578Zm92.176,7.607,2.622-27.859c.532-5.651-3.158-10.765-9.043-11.33l-9.679-.93a10.157,10.157,0,0,0-11.047,9.449L509.586,712.5c-.111,1.179.32,1.816,1.876,1.965,1.508.145,2.1-.393,2.209-1.573l1.226-13.02,21.594,2.074-1.226,13.021c-.111,1.179.32,1.815,1.877,1.965C538.649,717.073,539.24,716.535,539.351,715.355Zm-2.481-17.442-21.594-2.074.99-10.515a6.312,6.312,0,0,1,6.84-5.937l9.192.883a6.224,6.224,0,0,1,5.566,7.079Zm97.522-2.086.083-1.725a10.271,10.271,0,0,0-10.139-10.919l-17.027-.83a3.642,3.642,0,0,0-3.836,3.518l-1.653,34.6c-.056,1.183.4,1.8,1.965,1.874s2.126-.489,2.182-1.672l.751-15.723,12.831.626,8.537,16.818a1.5,1.5,0,0,0,1.224,1c.878.043,2.582-.812,2.629-1.8a2.179,2.179,0,0,0-.295-1l-7.506-14.841a10.144,10.144,0,0,0,10.254-9.926Zm-4.093-.3c-.182,3.8-2.846,6.333-7.041,6.129l-16.344-.8.624-13.062a1.34,1.34,0,0,1,1.432-1.313l15.075.735c3.952.193,6.508,2.985,6.329,6.731Zm70.32,25.5-2.02-36.264c-.071-1.281-.643-1.891-2.253-1.8s-2.11.762-2.039,2.043l2.02,36.264c.071,1.281.641,1.842,2.25,1.751s2.113-.713,2.042-1.995Zm93.641-9.784-5.054-37.21a1.858,1.858,0,0,0-2.258-1.381,1.889,1.889,0,0,0-1.855,1.951l1.726,12.713L763.1,676.755a4.687,4.687,0,0,0-2.768-.414,1.87,1.87,0,0,0-1.807,1.944l5.054,37.21a2.094,2.094,0,0,0,4.065-.564l-4.4-32.368a.69.69,0,0,1,.468-.912.928.928,0,0,1,.607.115l23.15,10.341,2.676,19.705a2.124,2.124,0,0,0,4.115-.57Zm91.875-10.616c-.1-1.526-.768-2.025-1.938-1.947l-22.809,1.52a1.339,1.339,0,0,1-1.455-1.287l-.827-12.654L877.967,685c1.17-.078,1.771-.612,1.668-2.188-.1-1.526-.768-2.026-1.938-1.948l-18.861,1.259-.8-12.26a1.345,1.345,0,0,1,1.275-1.47l22.857-1.525c1.17-.078,1.723-.61,1.623-2.136s-.72-2.029-1.89-1.951l-24.417,1.629a3.653,3.653,0,0,0-3.414,3.937l2.134,32.645a3.641,3.641,0,0,0,3.9,3.449l24.368-1.626c1.165-.078,1.766-.615,1.663-2.189Zm168.725,14.662,4.93-37.467a1.436,1.436,0,0,0-1.42-1.536,2.8,2.8,0,0,0-2.24.5l-11.03,8.573a5.272,5.272,0,0,1-8.39-1.027l-8.56-11.3a2.753,2.753,0,0,0-1.98-1.062,1.456,1.456,0,0,0-1.82,1.1l-4.93,37.467a1.9,1.9,0,0,0,1.86,1.943,1.868,1.868,0,0,0,2.26-1.39l4.03-30.619c.06-.489.24-.714.48-.682a.956.956,0,0,1,.54.421l5.67,7.432c1.72,2.272,3.63,3.523,5.66,3.8a8.944,8.944,0,0,0,6.64-2.193l7.29-5.592a.927.927,0,0,1,.63-.264c.24.032.35.3.29.786l-4.02,30.57a1.882,1.882,0,0,0,1.86,1.943,1.858,1.858,0,0,0,2.25-1.4Zm92.69.952,2.18-28c.09-1.181-.4-1.863-1.96-1.987s-2.09.477-2.18,1.658l-2.17,27.849a6.314,6.314,0,0,1-6.97,5.784l-8.71-.693a6.335,6.335,0,0,1-5.99-6.812l2.16-27.8c.09-1.181-.39-1.863-1.95-1.987s-2.1.477-2.19,1.658l-2.17,27.948a10.361,10.361,0,0,0,9.62,11.111l9.11.723a10.356,10.356,0,0,0,11.22-9.453Zm92.78,3.2-.01-1.332a10.374,10.374,0,0,0-10.54-10.521l-11.04.093c-3.95.034-6.51-2.461-6.54-6.211l-.01-1.234a6.054,6.054,0,0,1,6.39-6.271l17.92-.151c1.18-.01,1.81-.508,1.79-2.087-.01-1.53-.65-2.067-1.82-2.057l-18.12.152a10.176,10.176,0,0,0-10.37,10.3l.02,1.378a10.116,10.116,0,0,0,10.58,10.273l11.14-.093a6.264,6.264,0,0,1,6.5,6.458l.01,1.184c.03,3.6-2.39,6.287-6.45,6.321l-18.75.158c-1.17.01-1.76.558-1.74,2.087.01,1.579.6,2.067,1.77,2.058l18.9-.159a10.092,10.092,0,0,0,10.37-10.349Zm90.62-2.18c-.24-1.51-.95-1.942-2.11-1.752l-22.56,3.717a1.336,1.336,0,0,1-1.57-1.142l-2.02-12.518,18.65-3.073c1.16-.191,1.71-.781,1.46-2.339-.25-1.51-.96-1.943-2.12-1.752l-18.65,3.073-1.96-12.128a1.345,1.345,0,0,1,1.13-1.586l22.61-3.725c1.16-.19,1.66-.773,1.41-2.283s-.91-1.95-2.06-1.759L1299,683.969a3.66,3.66,0,0,0-3.02,4.249l5.21,32.293a3.63,3.63,0,0,0,4.2,3.057l24.11-3.97c1.16-.191,1.71-.781,1.45-2.34Zm89.67-22.344L1417.6,667c-.12-1.177-.73-1.756-2.28-1.585s-1.97.863-1.84,2.041l3,27.771a6.339,6.339,0,0,1-5.78,6.993l-8.7.959a6.312,6.312,0,0,1-7.14-5.568l-2.99-27.723c-.13-1.177-.73-1.756-2.29-1.585s-1.97.863-1.84,2.041l3.01,27.87a10.322,10.322,0,0,0,11.5,9.108l9.09-1a10.4,10.4,0,0,0,9.28-11.408Zm99.3,7.559,1.42-37.782a1.446,1.446,0,0,0-1.56-1.393,2.774,2.774,0,0,0-2.18.707l-10.19,9.588a5.27,5.27,0,0,1-8.45-.224l-9.58-10.442a2.745,2.745,0,0,0-2.07-.87,1.454,1.454,0,0,0-1.71,1.269l-1.41,37.781a2.124,2.124,0,0,0,4.15.159l1.15-30.876c.02-.494.18-.735.42-.725a.945.945,0,0,1,.57.367l6.35,6.861c1.92,2.1,3.94,3.164,5.99,3.242a8.988,8.988,0,0,0,6.41-2.817l6.74-6.263a.923.923,0,0,1,.59-.323c.25.01.39.262.37.755l-1.16,30.827a1.89,1.89,0,0,0,2.04,1.758,1.858,1.858,0,0,0,2.11-1.6Z" transform="translate(-391.938 -452)" fill="#fff" fill-rule="evenodd"/>
    <path id="マリンミュージアム_のコピー" data-name="マリンミュージアム のコピー" d="M480.9,587.626c1.176-17.561-11.578-32.146-29.338-33.335l-52.683-3.529c-2.494-.167-3.765.85-3.979,4.043-.22,3.293.91,4.371,3.4,4.538l52.682,3.529a22.578,22.578,0,0,1,21.338,24.08c-.868,12.971-11.787,21.861-24.359,21.019l-21.851-1.464a5.829,5.829,0,0,0-6.587,5.572,7.016,7.016,0,0,0,.006,1.4l2.335,20.5a3.771,3.771,0,0,0,3.7,3.055c2.195.147,4.883-1.077,5.05-3.571L428.6,617.3a2.211,2.211,0,0,1,2.542-2.034l16.264,1.089C464.767,617.515,479.718,605.287,480.9,587.626Zm123.185,21.313,1.871-45.061c.1-2.5-.941-3.842-4.238-3.979s-4.35,1.12-4.454,3.618l-1.872,45.061c-.714,17.186-10.092,28.506-31.174,27.63l-13.888-.576c-2.5-.1-3.742.945-3.875,4.142-.137,3.3,1.02,4.346,3.518,4.45l13.688.569c26.379,1.1,39.478-13.073,40.425-35.854Zm-66.523-8.068L539.2,561.3c.108-2.6-.937-3.942-4.234-4.079s-4.45,1.116-4.558,3.714l-1.644,39.566c-.108,2.6.942,3.843,4.239,3.98s4.447-1.017,4.555-3.615Zm154.921-22.08c-.1-1.9-1.153-2.741-3.078-3.135l-36.261-7.309a6.82,6.82,0,0,0-1.309-.128c-2.4.132-2.93,3.167-2.825,5.064s1.153,2.74,2.978,3.14l36.262,7.309a6.9,6.9,0,0,0,1.309.128c1.5-.083,2.441-1.137,2.808-3.561a10.5,10.5,0,0,0,.117-1.508Zm43.027,17.351-.51-9.187c-.138-2.5-1.308-3.733-4.6-3.551s-4.222,1.535-4.083,4.032l.508,9.186c1.259,22.767-6.045,37.393-36.1,39.056l-33.95,1.878c-2.5.138-3.634,1.3-3.451,4.6s1.435,4.228,3.932,4.089l34.05-1.883c36.744-2.035,45.614-22.762,44.2-48.22Zm122.57-46.694c-.3-3.186-1.692-4.161-4.181-3.93l-74.773,6.956c-2.489.232-3.582,1.438-3.285,4.624.3,3.286,1.593,4.17,4.082,3.939l74.772-6.956C857.184,553.849,858.386,552.733,858.08,549.448Zm3.344,35.942c-.3-3.186-1.693-4.161-4.082-3.938l-74.972,6.974c-2.389.222-3.482,1.429-3.186,4.615s1.584,4.07,3.974,3.848l74.971-6.974C860.518,589.692,861.72,588.576,861.424,585.39Zm3.343,35.943c-.3-3.186-1.692-4.161-4.082-3.939l-74.971,6.974c-2.39.223-3.483,1.429-3.186,4.615s1.584,4.071,3.973,3.848l74.972-6.974C863.862,625.635,865.064,624.519,864.767,621.333Zm124.125,2.326c.11-3-1.052-4.041-3.351-4.125l-3.1-.114,1.429-38.972c.38-10.393-6.829-18.462-16.622-18.821l-35.775-1.311c-2.3-.084-2.591,7.91-.293,7.994l35.076,1.286c5.4.2,10.117,5.173,9.9,11.169l-1.3,38.655-51.972-2.182c-2.3-.085-3.434.874-3.544,3.872s.953,4.038,3.251,4.122l62.656,2.3C987.547,627.612,988.782,626.657,988.892,623.659Zm136.838-26.2c.32-3.284-.85-4.606-3.44-4.86l-69.86-6.866c-2.59-.255-3.9.822-4.22,4.106s.76,4.5,3.35,4.751l69.86,6.866c2.59.256,3.99-.711,4.31-3.995Zm91.77-22.179c.13-2.3-.91-3.259-2.99-3.681l-31.3-6.045c-2.69-.158-3.43,2.2-3.57,4.5s.91,3.259,2.99,3.681l31.3,6.044c1.9.112,2.96-.928,3.41-3.506.02-.3.14-.692.16-.991Zm-1.73,29.448c.13-2.3-.91-3.259-2.99-3.682L1181.48,595c-2.69-.158-3.43,2.2-3.57,4.5s.91,3.258,2.99,3.681l31.29,6.144c1.9.111,2.96-.928,3.42-3.606.02-.3.14-.69.16-.989Zm42.53.693c.14-2.4-.88-3.758-4.18-3.951s-4.36,1.046-4.5,3.441c-1.34,22.76-10.26,36.46-40.31,34.7l-33.93-1.993c-2.5-.146-3.76.882-3.96,4.176s.95,4.363,3.45,4.509l34.03,2c36.74,2.153,47.91-17.425,49.4-42.88Zm127.93-13.956a26.861,26.861,0,0,0-28.37-25.77l-60.23,2.889c-1.9.091-3.41,1.866-3.29,4.463.13,2.7,1.81,4.318,3.71,4.227l60.23-2.889c11.68-.56,18.83,8.508,19.26,17.5.44,9.19-5.61,18.69-17.5,19.261l-32.96,1.581-9.28,36.185c.12,2.4,2.89,3.866,4.99,3.766a3.46,3.46,0,0,0,3.39-2.465l7.6-29.3,26.97-1.294c16.28-.78,26.17-13.668,25.48-28.152Zm125.86,39.506-4.46-35.821c-1.7-13.6-12.02-25.307-29.68-23.107l-1.2.148c-2.48.309-3.53,1.549-3.12,4.823s1.72,4.119,4.2,3.81l1.19-.148c12.5-1.558,18.87,6.718,19.99,15.648l3.37,27.089-59.04,7.354a2.724,2.724,0,0,1-3.12-2.432l-5.99-48.026c-1.11-8.931,3.04-18.516,15.64-20.086l1.09-.136c2.48-.309,3.65-1.462,3.24-4.736s-1.83-4.206-4.31-3.9l-1.09.136c-17.67,2.2-24.8,16.088-23.11,29.682l6.49,52.1a7.426,7.426,0,0,0,8.37,6.515Z" transform="translate(-391.938 -452)" fill="#fff" fill-rule="evenodd"/>
    <path id="オルカ_1_1" data-name="オルカ 1 1" d="M1214.19,539.948c.48,1.4.91,2.857,1.28,4.355s.73,2.974,1.08,4.41a16.414,16.414,0,0,0,1.6,4.054,10.536,10.536,0,0,0,2.9,3.256,11.915,11.915,0,0,0,4.94,1.97,12.6,12.6,0,0,0,.16-4.534,33.265,33.265,0,0,1-.13-7.647c.1-.859.19-1.68.24-2.458a13.956,13.956,0,0,0,.01-2.331,13.77,13.77,0,0,0-.59-2.807,3.416,3.416,0,0,1-.53-.923,2.551,2.551,0,0,1-.36-.98,1.558,1.558,0,0,1,.38-.569,1.76,1.76,0,0,0,.39-.563,1.534,1.534,0,0,0,.53-.669,8.65,8.65,0,0,1,.47-.782c.29.057.65.119,1.09.171a7.071,7.071,0,0,0,1.35.036,3.423,3.423,0,0,0,1.24-.3,1.256,1.256,0,0,0,.68-.964,2.7,2.7,0,0,0-.58-2.352,8.6,8.6,0,0,0-2.13-1.827,14.276,14.276,0,0,0-2.68-1.3,16.724,16.724,0,0,0-2.27-.665,12.88,12.88,0,0,0-2.88-.242,13.149,13.149,0,0,1-2.89-.245l-.61-.118a109.556,109.556,0,0,0-11.26-12.46A106.559,106.559,0,0,0,1193.1,503.3a129.815,129.815,0,0,0-13.87-8.364q-7.26-3.783-15.18-7.155c-.95-.367-2.01-.853-3.19-1.441a19.405,19.405,0,0,1-3.38-2.168,14.415,14.415,0,0,1-2.71-2.763,5.449,5.449,0,0,1-1.12-3.32l.21-1.058c.09-.465.16-.938.23-1.413s.13-.944.22-1.414l.19-.971c.41-2.112.9-4.19,1.44-6.246a17.085,17.085,0,0,1,2.69-5.638,35.268,35.268,0,0,1,2.19-2.942,7,7,0,0,0,1.45-3.279,3.043,3.043,0,0,0-.16-1.948,2.159,2.159,0,0,0-1.69-1.059,7.519,7.519,0,0,0-4.1.385,18.407,18.407,0,0,0-4.01,2.094,26.315,26.315,0,0,0-3.61,2.947c-1.11,1.093-2.05,2.084-2.83,2.963-.3.306-.94,1.1-1.91,2.365s-2.01,2.62-3.13,4.045-2.16,2.772-3.14,4.045c-.96,1.269-1.57,2.063-1.82,2.38a12.32,12.32,0,0,1-2.04,1.93,17.98,17.98,0,0,1-2.23,1.438,16.2,16.2,0,0,1-4.77,1.807,30.947,30.947,0,0,1-4.72.543,46.628,46.628,0,0,1-4.9-.09c-1.69-.114-3.45-.172-5.25-.159a114.492,114.492,0,0,0-12.7.953,73.863,73.863,0,0,0-12.94,2.863,57.3,57.3,0,0,0-11.92,5.341,37.782,37.782,0,0,0-9.75,8.278c-.38.412-.86,1-1.47,1.767a5.179,5.179,0,0,0-1.08,2.118,4.136,4.136,0,0,0,1.02,3.528,13.74,13.74,0,0,0,3.45,2.953,27.507,27.507,0,0,0,4.24,2.15,20.165,20.165,0,0,0,3.47,1.129c.29.122,1.08.353,2.39.7,1.33.343,2.75.7,4.28,1.06s2.94.678,4.28.968,2.14.46,2.43.517c1.09.276,2.4.622,3.95,1.047s3.13.884,4.79,1.386q2.46.761,4.94,1.515c1.65.5,3.13.958,4.43,1.364s2.38.752,3.23,1.042,1.3.432,1.36.443l.95.737c.94,1.334,2.03,2.843,3.27,4.514a55.233,55.233,0,0,0,4.07,4.857,33.393,33.393,0,0,0,4.7,4.151,13.2,13.2,0,0,0,5.28,2.353c.05.011.21.058.46.139a3.56,3.56,0,0,0,.79.153,3.371,3.371,0,0,0,.78-.035.471.471,0,0,0,.43-.418l.11-.52a4.616,4.616,0,0,1,.2-.783c.07-.232.14-.494.2-.789l.08-.436a13.5,13.5,0,0,0,.28-3.049c-.04-.922-.11-1.832-.24-2.739a21.847,21.847,0,0,0-.58-2.806,31.608,31.608,0,0,1-.68-3.234l.11-.531a99.8,99.8,0,0,0,13.4.97c4.49.022,8.97.018,13.47-.025q6.72-.053,13.42.2a86.74,86.74,0,0,1,13.29,1.543,61.94,61.94,0,0,1,7.53,1.923,66.658,66.658,0,0,1,6.68,2.581c2.17.966,4.34,2.077,6.53,3.325s4.57,2.637,7.1,4.166A10.828,10.828,0,0,1,1214.19,539.948Z" transform="translate(-391.938 -452)" fill="#fff" fill-rule="evenodd"/>
    <path id="シェイプ_1" data-name="シェイプ 1" d="M1245.72,575.791c-1.32-1.72,4.97-10.8,14.43-14.121,13.74-4.828,29.37,4.233,28.84,6.512-.4,1.739-12.28-1.313-25.45,1.865C1255.89,571.893,1246.8,577.192,1245.72,575.791Z" transform="translate(-391.938 -452)" fill="#fff" fill-rule="evenodd"/>
    <path id="シェイプ_2" data-name="シェイプ 2" d="M1241.92,568.209c-1.88-.827-1.28-12.056,5.66-17.209,5.98-4.436,14.98-3.129,15.38-1.212.29,1.334-6.21,4.03-9.67,6.744C1247,561.459,1243.36,568.844,1241.92,568.209Z" transform="translate(-391.938 -452)" fill="#fff" fill-rule="evenodd"/>
  </g>
</svg>
